<svg width="61" height="65" viewBox="0 0 61 65" fill="none" xmlns="http://www.w3.org/2000/svg">
<path fill-rule="evenodd" clip-rule="evenodd" d="M60.1253 30.7286L57.4018 29.6365V27.8999C57.4401 17.2418 50.2284 7.73239 39.4391 4.2152V1.76784C39.4391 1.04139 38.8068 0.451843 38.0283 0.451843H22.9296C22.1511 0.451843 21.5189 1.04139 21.5189 1.76784V4.22813C10.7295 7.74532 3.51785 17.2547 3.55611 27.9129V29.6628L0.860812 30.7286C0.338586 30.9342 0 31.4118 0 31.9393V38.8475C0 39.5735 0.632218 40.1631 1.41125 40.1631H3.24574V42.7951C3.24574 43.5211 3.87748 44.1106 4.65651 44.1106H9.72239C10.2035 45.7579 10.9103 47.3424 11.8247 48.8212L8.24084 52.1635C7.69327 52.6764 7.69327 53.5054 8.24084 54.0187L14.2378 59.6109C14.7878 60.1215 15.6768 60.1215 16.2273 59.6109L19.8111 56.2689C21.3931 57.1216 23.0865 57.7794 24.8488 58.2293V62.9533C24.8488 63.6793 25.481 64.2688 26.26 64.2688H34.7261C35.5051 64.2688 36.1374 63.6793 36.1374 62.9533V58.2293C37.9039 57.7807 39.6026 57.1229 41.1889 56.2689L44.7732 59.6109C45.3232 60.1215 46.2122 60.1215 46.7626 59.6109L52.7596 54.0187C53.3072 53.5054 53.3072 52.6764 52.7596 52.1635L49.1753 48.8212C50.0897 47.3424 50.797 45.7579 51.2781 44.1106H56.3435C57.1225 44.1106 57.7547 43.5211 57.7547 42.7951V40.1631H59.5892C60.3683 40.1631 61 39.5735 61 38.8475V31.9393C60.9971 31.4078 60.6519 30.9302 60.1253 30.7286ZM24.3126 3.09674H36.6171V25.0837H24.3408L24.3126 3.09674ZM50.2479 41.4791H54.9465L54.9327 40.1631H42.0215C41.3778 45.1158 37.1913 49.0187 31.8801 49.6199C25.5049 50.3423 19.7097 46.108 18.9364 40.1631H6.03955V41.4791H10.7381C11.4153 41.4644 12.0064 41.9014 12.1494 42.5181C12.6415 44.5722 13.5305 46.525 14.7739 48.2816C15.1364 48.8015 15.0589 49.487 14.5903 49.9262L11.2178 53.0711L15.211 56.7952L18.5835 53.6503C19.055 53.2133 19.7901 53.1411 20.3477 53.4791C22.2424 54.6292 24.3466 55.4448 26.556 55.8872C27.2179 56.0201 27.6866 56.5713 27.6708 57.2028V61.6765H33.3148V57.2425C33.2995 56.611 33.7677 56.0594 34.4296 55.9265C36.6395 55.4832 38.7432 54.6671 40.6384 53.5188C41.196 53.1803 41.9311 53.253 42.4021 53.6896L45.7746 56.8344L49.8104 53.0974L46.4379 49.9525C45.9697 49.5133 45.8918 48.8279 46.2547 48.3079C47.4866 46.5406 48.3613 44.5789 48.8367 42.5181C48.9792 41.9014 49.5708 41.4644 50.2479 41.4791ZM21.8149 40.1631H39.1851C38.4089 44.6396 33.8877 47.6819 29.0878 46.9581C25.3428 46.3935 22.4065 43.6553 21.801 40.1631H21.8149ZM2.80811 37.5316H58.1918V32.834L55.4687 31.7419C54.9465 31.5367 54.6079 31.0591 54.6079 30.5315V27.8996C54.6476 18.6983 48.6406 10.4112 39.4672 7.01752V26.3998C39.4672 27.1258 38.835 27.7154 38.056 27.7154H22.9296C22.1505 27.7154 21.5188 27.1258 21.5188 26.3998V7.01752C12.3607 10.4125 6.36087 18.6836 6.39195 27.8732V30.5048C6.39195 31.0328 6.05337 31.5104 5.53114 31.7155L2.80811 32.8077V37.5316Z" fill="#FFDE66"/>
</svg>
