<svg width="62" height="68" viewBox="0 0 62 68" fill="none" xmlns="http://www.w3.org/2000/svg">
<path fill-rule="evenodd" clip-rule="evenodd" d="M19.8829 66.178L19.8829 19.4522L43.1004 19.4522C43.873 19.4522 44.5 18.8528 44.5 18.1137V2.18152C44.5 1.44237 43.873 0.842529 43.1004 0.842529L1.89964 0.842529C1.12701 0.842529 0.5 1.44237 0.5 2.18152L0.5 66.178C0.5 66.9171 1.12701 67.517 1.89964 67.517L18.4832 67.517C19.2558 67.517 19.8829 66.9171 19.8829 66.178ZM41.7007 3.52002V16.7745L19.0571 16.7745L5.27234 3.52002L41.7007 3.52002ZM3.29932 5.42126L3.29932 64.8393L17.0841 65.0267V60.6082H13.6132C12.8406 60.6082 12.2136 60.0088 12.2136 59.2697C12.2136 58.5305 12.8406 57.9307 13.6132 57.9307H17.0841V55.2532H13.6132C12.8406 55.2532 12.2136 54.6533 12.2136 53.9142C12.2136 53.1751 12.8406 52.5752 13.6132 52.5752H17.0841V49.8977H10.6466C9.87394 49.8977 9.24693 49.2979 9.24693 48.5587C9.24693 47.82 9.87394 47.2202 10.6466 47.2202H17.0841L17.0841 44.5422H13.6132C12.8406 44.5422 12.2136 43.9424 12.2136 43.2037C12.2136 42.4645 12.8406 41.8647 13.6132 41.8647H17.0841V39.1872H13.6132C12.8406 39.1872 12.2136 38.5873 12.2136 37.8482C12.2136 37.1091 12.8406 36.5092 13.6132 36.5092H17.0841V33.8317H10.6466C9.87394 33.8317 9.24693 33.2319 9.24693 32.4927C9.24693 31.7536 9.87394 31.1542 10.6466 31.1542L17.0841 31.1542V28.4762L13.6132 28.4762C12.8406 28.4762 12.2136 27.8764 12.2136 27.1372C12.2136 26.3985 12.8406 25.7987 13.6132 25.7987L17.0841 25.7987V23.1207L13.6132 23.1207C12.8406 23.1207 12.2136 22.5213 12.2136 21.7822C12.2136 21.0431 12.8406 20.4432 13.6132 20.4432L17.0841 20.4432V18.6092L3.29932 5.42126Z" fill="#FFDE66"/>
<path fill-rule="evenodd" clip-rule="evenodd" d="M21.5 34.5712L21.5 34.5747L21.5 34.585V34.5712ZM21.5 34.5747C21.5037 34.8615 21.602 35.1405 21.7806 35.3698L31.7037 48.4165C31.7037 48.4165 31.816 48.4977 31.8721 48.5518C31.8939 48.5729 31.9094 48.594 31.9242 48.6143C31.9475 48.6461 31.9694 48.676 32.0124 48.7009L51.4509 62.4921C52.895 63.7305 54.9512 64.0525 56.7278 63.3177C57.6639 62.8696 58.4653 62.1999 59.058 61.3688L60.2367 59.7854C61.0044 58.8488 61.4467 57.7025 61.5 56.51C61.4424 54.8509 60.533 53.3281 59.0718 52.4497L39.5772 38.7126C39.4973 38.6682 39.4116 38.6328 39.3246 38.6044C39.3246 38.6044 39.2404 38.6044 39.1981 38.5232L23.3527 33.2988C22.6187 33.0594 21.8215 33.4396 21.5747 34.1474C21.5263 34.285 21.5012 34.4291 21.5 34.5747ZM57.4155 54.6696C58.1299 55.0577 58.6099 55.7508 58.7069 56.5369C58.6479 57.1557 58.3939 57.7415 57.9773 58.2153L56.7981 59.7583C56.4866 60.2156 56.0628 60.5936 55.5629 60.8545L55.5533 60.8587C55.2911 60.9713 54.5208 61.3022 53.1209 60.3133L51.858 59.4198L54.0051 56.6048L56.1384 53.7761L57.4155 54.6696ZM52.5597 53.8983L53.8792 52.1658L39.0858 41.7037L34.7911 47.3341L49.5845 57.7961L50.9035 56.077L39.4792 47.9565C39.4297 47.9253 39.3836 47.8927 39.3389 47.856C38.7438 47.3786 38.6634 46.5245 39.1591 45.9507C39.6542 45.3769 40.5399 45.2984 41.1349 45.7773L52.5597 53.8983ZM36.5178 40.4855L32.8263 45.3309L30.5388 42.3262L32.8543 39.281L36.5178 40.4855ZM28.7984 40.0387L30.0756 38.3609L26.679 37.2509L28.7984 40.0387Z" fill="#FFDE66"/>
</svg>
